HIERARCHY
ROOT root
{
	OFFSET	0	13.1	24.9
	CHANNELS 6  Xposition Yposition Zposition Xrotation Yrotation Zrotation
	JOINT spine_1
	{
		OFFSET	0	9.99999	0
		CHANNELS 3  Xrotation Yrotation Zrotation
		JOINT spine_2
		{
			OFFSET	0	112	-10
			CHANNELS 3  Xrotation Yrotation Zrotation
			JOINT spine_3
			{
				OFFSET	0	206.5	19.3
				CHANNELS 3  Xrotation Yrotation Zrotation
				JOINT spine_4
				{
					OFFSET	0	110.4	14.6
					CHANNELS 3  Xrotation Yrotation Zrotation
					JOINT neck_1
					{
						OFFSET	0	71.8	-50.3
						CHANNELS 3  Xrotation Yrotation Zrotation
						JOINT neck_2
						{
							OFFSET	0	86.2	-25.8
							CHANNELS 3  Xrotation Yrotation Zrotation
							JOINT head_ee
							{
								OFFSET	0	179.8	-8.7
								CHANNELS 3  Xrotation Yrotation Zrotation
								End Site
								{
									OFFSET	1	0	0
								}
							}
						}
					}
					JOINT left_clavicle
					{
						OFFSET	-43.2	22.4	-70.8
						CHANNELS 3  Xrotation Yrotation Zrotation
						JOINT left_shoulder
						{
							OFFSET	-93.9	-5.79999	48.7
							CHANNELS 3  Xrotation Yrotation Zrotation
							JOINT left_elbow
							{
								OFFSET	-291.4	-30.8	15.2
								CHANNELS 3  Xrotation Yrotation Zrotation
								JOINT left_lowarm_twist
								{
									OFFSET	-110.7	-3.89999	13.6
									CHANNELS 3  Xrotation Yrotation Zrotation
									JOINT left_hand
									{
										OFFSET	-110.7	-3.89999	13.6
										CHANNELS 3  Xrotation Yrotation Zrotation
										JOINT left_ee
										{
											OFFSET	-80.8	-5.10001	12.1
											CHANNELS 3  Xrotation Yrotation Zrotation
											End Site
											{
												OFFSET	1	0	0
											}
										}
									}
								}
							}
						}
					}
					JOINT right_clavicle
					{
						OFFSET	43.2	22.4	-70.8
						CHANNELS 3  Xrotation Yrotation Zrotation
						JOINT right_shoulder
						{
							OFFSET	93.9	-5.79999	48.7
							CHANNELS 3  Xrotation Yrotation Zrotation
							JOINT right_elbow
							{
								OFFSET	291.4	-30.8	15.2
								CHANNELS 3  Xrotation Yrotation Zrotation
								JOINT right_lowarm_twist
								{
									OFFSET	110.7	-3.89999	13.6
									CHANNELS 3  Xrotation Yrotation Zrotation
									JOINT right_hand
									{
										OFFSET	110.7	-3.89999	13.6
										CHANNELS 3  Xrotation Yrotation Zrotation
										JOINT right_ee
										{
											OFFSET	80.8	-5.10001	12.1
											CHANNELS 3  Xrotation Yrotation Zrotation
											End Site
											{
												OFFSET	1	0	0
											}
										}
									}
								}
							}
						}
					}
				}
			}
		}
	}
	JOINT left_hip
	{
		OFFSET	-82.8	-127.5	0.300001
		CHANNELS 3  Xrotation Yrotation Zrotation
		JOINT left_knee
		{
			OFFSET	-28.2	-396.7	2.2
			CHANNELS 3  Xrotation Yrotation Zrotation
			JOINT left_ankle
			{
				OFFSET	-11.7	-411.3	35.4
				CHANNELS 3  Xrotation Yrotation Zrotation
				JOINT left_toes
				{
					OFFSET	0	-60	-88.6
					CHANNELS 3  Xrotation Yrotation Zrotation
					JOINT left_foot_ee
					{
						OFFSET	-22.5	-16.5	-42.2
						CHANNELS 3  Xrotation Yrotation Zrotation
						End Site
						{
							OFFSET	1	0	0
						}
					}
				}
			}
		}
	}
	JOINT right_hip
	{
		OFFSET	82.8	-127.5	0.300001
		CHANNELS 3  Xrotation Yrotation Zrotation
		JOINT right_knee
		{
			OFFSET	28.2	-396.7	2.2
			CHANNELS 3  Xrotation Yrotation Zrotation
			JOINT right_ankle
			{
				OFFSET	11.7	-411.3	35.4
				CHANNELS 3  Xrotation Yrotation Zrotation
				JOINT right_toes
				{
					OFFSET	0	-60	-88.6
					CHANNELS 3  Xrotation Yrotation Zrotation
					JOINT right_foot_ee
					{
						OFFSET	22.5	-16.5	-42.2
						CHANNELS 3  Xrotation Yrotation Zrotation
						End Site
						{
							OFFSET	1	0	0
						}
					}
				}
			}
		}
	}
}
MOTION
Frames: 8
Frame Time: 0.02
1331.07 615.001 -1426.9 -81.8461 73.7237 90.0632 7.41324 -0.228993 -2.01439 7.41549 -0.100374 -2.02487 7.41561 0.0664887 -2.02627 7.40997 -0.254291 -2.01135 -19.7668 -17.2026 -8.16074 -20.8488 -29.0348 -15.0495 -0.0 0.0 -0.0 4.72199 0.779247 9.1474 -8.91079 -37.7127 70.4649 4.22407 -64.4372 2.66268 -85.6864 -8.53761 5.1672 -1.42328 -4.2316 -11.4512 -0.0 0.0 -0.0 -1.28857 -22.0898 -0.749565 -34.3174 14.1873 -74.3525 0.972606 25.7243 -0.222086 -8.61597 0.382022 -1.0321 1.46724 -25.2657 -18.6001 0.0 0.0 0.0 6.5677 -24.6859 -10.5612 -25.5095 0.189709 3.87784 36.8479 6.76991 -4.57573 -4.27173 0.0 0.0 -0.0 0.0 -0.0 35.865 -20.4525 -6.57183 4.2306 0.197191 0.619005 9.74062 -19.0602 1.41243 19.8644 -0.0 -0.0 0.0 0.0 0.0 
1306.74 613.37 -1437.64 -85.2491 73.6632 93.3011 7.42645 -0.351955 -1.81686 7.42825 -0.23565 -1.83556 7.43297 -0.0845341 -1.84869 7.4284 -0.375392 -1.81216 -19.6742 -16.3867 -8.11629 -20.6002 -27.4662 -14.5737 -0.0 0.0 -0.0 4.36176 0.0467971 8.42042 -11.5735 -37.1776 69.7169 3.92393 -62.7586 2.39382 -85.2243 -8.47995 5.17902 -1.68711 -1.92969 -12.2254 -0.0 0.0 -0.0 -1.38452 -22.6222 -0.694363 -34.8971 15.6498 -73.3184 1.03865 27.226 -0.251533 -8.42436 0.37185 -1.0098 1.64048 -23.0318 -19.0279 0.0 0.0 0.0 6.37247 -25.2141 -10.4296 -27.2834 0.138493 4.14526 37.1154 8.46137 -4.60609 -4.35524 0.0 0.0 -0.0 0.0 -0.0 35.1846 -20.6696 -6.96919 3.03702 0.136926 0.445833 10.6558 -19.7308 1.54421 20.7788 -0.0 -0.0 0.0 0.0 0.0 
1277.21 612.417 -1452.81 -87.7491 74.0652 95.5243 7.43027 -0.59928 -1.52379 7.43142 -0.501115 -1.55882 7.44311 -0.372153 -1.59453 7.4401 -0.619281 -1.51577 -19.4612 -15.1961 -7.88876 -20.1924 -25.2472 -13.7361 -0.0 0.0 -0.0 4.00489 -1.19735 7.66453 -14.5402 -36.4497 68.8402 3.55092 -60.3667 2.06574 -84.4594 -8.38429 5.19754 -2.04985 1.33449 -13.1956 -0.0 0.0 -0.0 -1.59054 -23.6189 -0.562823 -35.8654 17.7 -71.7754 1.12578 29.1466 -0.292693 -8.15301 0.357573 -0.978169 1.88373 -19.8736 -19.6471 0.0 0.0 0.0 6.10992 -25.9747 -10.2439 -29.7544 0.0533949 4.51491 37.5028 10.871 -4.65702 -4.47435 0.0 0.0 -0.0 0.0 -0.0 34.2337 -20.9694 -7.53724 1.34415 0.0576797 0.198193 11.8197 -20.6907 1.71254 22.0323 -0.0 -0.0 0.0 0.0 0.0 
1258.91 611.556 -1469.9 -88.3495 73.8971 95.2225 7.53641 -0.614262 -1.40925 7.53736 -0.523352 -1.44547 7.5489 -0.406311 -1.48262 7.5464 -0.635341 -1.39987 -18.2537 -14.9632 -7.35977 -18.8916 -24.8781 -12.8307 -0.0 0.0 -0.0 3.40047 -1.3097 6.47505 -18.3055 -35.0659 68.2113 3.20767 -57.8036 1.77118 -83.3322 -8.24283 5.22249 -2.51075 4.72065 -14.6973 -0.0 0.0 -0.0 -1.12818 -23.4725 -1.17268 -35.2569 18.1925 -71.3499 1.19779 30.6816 -0.328606 -7.95651 0.347327 -0.95522 1.99939 -18.8697 -20.0962 0.0 0.0 0.0 7.38956 -27.331 -9.51299 -32.0659 -0.040594 4.85716 37.7657 10.7746 -4.68071 -4.65238 0.0 0.0 -0.0 0.0 -0.0 33.0995 -20.9737 -8.49377 0.655702 0.0275556 0.0968477 13.4278 -22.064 1.94604 22.9256 -0.0 -0.0 0.0 0.0 0.0 
1247.75 619.199 -1478.28 -87.394 73.5698 93.9703 7.46427 -0.639916 -1.30084 7.46504 -0.555851 -1.33891 7.47667 -0.445473 -1.37956 7.47462 -0.657741 -1.29192 -18.4857 -14.3472 -7.11242 -19.0815 -23.8568 -12.3954 -0.0 0.0 -0.0 3.29209 -0.163595 6.33567 -18.1086 -33.835 68.9432 3.00964 -56.1371 1.60514 -83.7262 -8.29233 5.21409 -2.69587 6.82093 -14.8914 -0.0 0.0 -0.0 -0.783253 -23.345 -1.6276 -34.9941 18.9911 -70.5606 1.28797 32.5373 -0.375877 -7.90766 0.344793 -0.949511 2.04033 -18.1383 -20.1453 0.0 0.0 0.0 9.10699 -29.136 -8.67535 -35.3225 -0.196308 5.33245 37.1146 10.7602 -4.61979 -4.90877 0.0 0.0 -0.0 0.0 -0.0 32.4257 -20.7025 -8.5674 0.614776 0.0258033 0.0908121 13.9956 -22.3064 2.02647 23.1915 -0.0 -0.0 0.0 0.0 0.0 
1229.47 624.23 -1487.71 -85.6229 73.3647 91.2525 7.48474 -0.618994 -1.15614 7.48532 -0.544176 -1.19318 7.4956 -0.446044 -1.23323 7.49404 -0.635199 -1.14732 -18.761 -13.5047 -6.73577 -19.2998 -22.4699 -11.7503 -0.0 0.0 -0.0 3.12708 1.70673 6.1347 -17.59 -32.0341 70.1054 2.7825 -54.0293 1.41886 -84.2889 -8.36292 5.2015 -2.9685 9.82009 -15.1532 -0.0 0.0 -0.0 -0.20945 -23.166 -2.3937 -34.4487 20.1163 -69.5364 1.42308 35.1799 -0.451172 -7.81685 0.340094 -0.938889 2.09737 -17.1144 -20.211 0.0 0.0 0.0 11.6544 -31.6654 -7.41285 -39.9415 -0.463049 5.99009 36.2376 10.7096 -4.53616 -5.25793 0.0 0.0 -0.0 0.0 -0.0 31.467 -20.3128 -8.63125 0.525478 0.0219944 0.0776383 14.7462 -22.7259 2.13353 23.5418 -0.0 -0.0 0.0 0.0 0.0 
1211.6 628.266 -1499.97 -80.0071 73.6611 85.5927 7.47935 -0.604865 -1.16701 7.47995 -0.529385 -1.20313 7.48998 -0.430373 -1.24199 7.48837 -0.621108 -1.15845 -19.1681 -12.3713 -6.32235 -19.6279 -20.554 -10.9671 -0.0 0.0 -0.0 2.87954 4.36957 5.83382 -16.4482 -29.0684 70.7491 2.51951 -51.2893 1.20971 -85.1273 -8.46784 5.18144 -3.37935 14.1096 -15.4971 -0.0 0.0 -0.0 0.177324 -23.0019 -2.909 -34.483 21.5228 -67.7666 1.60379 38.4633 -0.559526 -7.6881 0.333461 -0.923817 2.17429 -15.7406 -20.2992 0.0 0.0 0.0 16.0166 -34.5697 -4.92034 -46.4265 -0.925377 6.87338 34.9791 10.5643 -4.41299 -5.73875 0.0 0.0 -0.0 0.0 -0.0 29.957 -19.7262 -9.19719 0.400737 0.0167088 0.0592259 15.7876 -23.3113 2.2819 24.0105 -0.0 -0.0 0.0 0.0 0.0 
1197.68 630.901 -1510.22 -75.4379 73.4502 80.4041 7.43917 -0.554574 -1.16213 7.4398 -0.479506 -1.19506 7.44871 -0.380412 -1.23019 7.44705 -0.569911 -1.15469 -19.7047 -12.1375 -6.11584 -20.1825 -20.2775 -10.7907 -0.0 0.0 -0.0 2.72591 6.11958 5.65986 -17.4609 -27.5259 70.2733 2.35651 -49.408 1.08419 -85.0691 -8.46057 5.18288 -3.65036 15.8386 -16.2503 -0.0 0.0 -0.0 0.715456 -22.7707 -3.63213 -33.3654 22.1123 -66.0662 1.69767 40.0596 -0.61894 -7.6973 0.333933 -0.924895 2.23293 -14.7687 -20.3876 0.0 0.0 0.0 22.5857 -35.6922 -0.644376 -55.5926 -1.74333 8.02228 34.5302 10.3266 -4.36716 -5.51286 0.0 0.0 -0.0 0.0 -0.0 28.158 -18.8894 -9.99878 1.78988 0.0778335 0.263617 17.2626 -23.4603 2.48295 24.6799 -0.0 -0.0 0.0 0.0 0.0 
